# xmcd
#
# Track frame offsets: 
#        182
#        12330
#        23375
#        35770
#        48620
#        60687
#        71857
#        82905
#        95145
#        107130
#        118815
#        131065
#        143312
#        154730
#        167777
#        177750
#        188480
#        198777
#        210465
#        220380
#        231607
#        242387
#        252262
#        262720
#        273510
#        285197
#        296595
#        308225
#        319162
#
# Disc length: 4405 seconds
#
# Revision: 1
# Processed by: cddbd v1.5.2PL0 Copyright (c) Steve Scherf et al.
# Submitted via: ExactAudioCopy v1.0b3
#
DISCID=9f11331d
DTITLE=Reno and Smiley - Early Years 1951-59 CD2
DYEAR=2009
DGENRE=Bluegrass
TTITLE0=Mountain Church
TTITLE1=Love Call Waltz
TTITLE2=I'm the Talk of the Town
TTITLE3=Always Be Kind to Your Mother
TTITLE4=Since I've Used My Bible for a Roadmap
TTITLE5=I'm Building a Mansion in Heaven
TTITLE6=My Shepherd Is God
TTITLE7=Tree of Life
TTITLE8=Springtime in Heaven
TTITLE9=Tally Ho
TTITLE10=Emotions
TTITLE11=Your Tears Are Just Interest on the Loan
TTITLE12=All I Have Is Just a Memory
TTITLE13=Someone Will Love Me in Heaven
TTITLE14=Limehouse Blues
TTITLE15=Dixie Breakdown
TTITLE16=Barefoot Nellie
TTITLE17=Cruel Love
TTITLE18=I'm the Biggest Liar in Town
TTITLE19=It's Grand to Have Someone to Love You
TTITLE20=Let's Live for Tonight
TTITLE21=Old Home Place
TTITLE22=Trail of Sorrow
TTITLE23=Charlotte Breakdown
TTITLE24=How I Miss My Darling Mother
TTITLE25=Family Altar
TTITLE26=Jesus Is Waiting
TTITLE27=I'm So Happy
TTITLE28=Hen Scratchin' Stomp
EXTD=
EXTT0=
EXTT1=
EXTT2=
EXTT3=
EXTT4=
EXTT5=
EXTT6=
EXTT7=
EXTT8=
EXTT9=
EXTT10=
EXTT11=
EXTT12=
EXTT13=
EXTT14=
EXTT15=
EXTT16=
EXTT17=
EXTT18=
EXTT19=
EXTT20=
EXTT21=
EXTT22=
EXTT23=
EXTT24=
EXTT25=
EXTT26=
EXTT27=
EXTT28=
PLAYORDER=
